<?xml version="1.0" encoding="UTF-8"?>
<svg xmlns="http://www.w3.org/2000/svg" viewBox="0 0 512 512" width="512" height="512">
  <defs>
    <linearGradient id="sg" x1="0%" y1="0%" x2="0%" y2="100%">
      <stop offset="0%" stop-color="#3FB950" stop-opacity="0.18"/>
      <stop offset="50%" stop-color="#238636" stop-opacity="0.50"/>
      <stop offset="100%" stop-color="#196C2E" stop-opacity="0.65"/>
    </linearGradient>
  </defs>
  <path d="M 81.9,56.3 L 430.1,56.3 L 430.0,67.5 L 429.8,78.0 L 429.4,88.3 L 428.8,98.4 L 428.1,108.6 L 427.3,119.1 L 426.4,130.3 L 425.3,142.3 L 424.1,155.3 L 422.8,169.6 L 421.3,185.5 L 419.8,203.1 L 418.2,222.7 L 416.4,244.6 L 414.6,268.9 L 412.7,295.9 L 405.7,306.4 L 397.7,316.9 L 389.0,327.3 L 379.6,337.7 L 369.7,348.1 L 359.3,358.4 L 348.5,368.6 L 337.6,378.8 L 326.6,388.9 L 315.5,398.8 L 304.6,408.7 L 293.9,418.4 L 283.6,427.9 L 273.8,437.4 L 264.5,446.6 L 256.0,455.7 L 247.5,446.6 L 238.2,437.3 L 228.4,427.9 L 218.1,418.4 L 207.4,408.7 L 196.5,398.8 L 185.4,388.9 L 174.4,378.8 L 163.5,368.6 L 152.7,358.4 L 142.3,348.1 L 132.4,337.7 L 123.0,327.3 L 114.3,316.9 L 106.3,306.4 L 99.3,295.9 L 97.4,268.9 L 95.6,244.6 L 93.8,222.7 L 92.2,203.1 L 90.7,185.5 L 89.2,169.6 L 87.9,155.3 L 86.7,142.3 L 85.6,130.3 L 84.7,119.1 L 83.9,108.6 L 83.2,98.4 L 82.6,88.3 L 82.2,78.0 L 82.0,67.5 L 81.9,56.3 Z" fill="url(#sg)" stroke="#3FB950" stroke-width="7" stroke-linejoin="round"/>
  <g stroke="#56D364" stroke-width="16" stroke-linecap="round" stroke-linejoin="round" fill="none">
    <line x1="256.0" y1="159.3" x2="256.0" y2="320.8"/>
    <line x1="229.7" y1="159.3" x2="282.3" y2="159.3"/>
    <line x1="229.7" y1="320.8" x2="282.3" y2="320.8"/>
    <line x1="256.0" y1="211.8" x2="203.5" y2="179.4"/>
    <line x1="256.0" y1="211.8" x2="308.5" y2="179.4"/>
    <line x1="256.0" y1="268.3" x2="203.5" y2="300.6"/>
    <line x1="256.0" y1="268.3" x2="308.5" y2="300.6"/>
  </g>
</svg>